<svg xmlns="http://www.w3.org/2000/svg" xmlns:xlink="http://www.w3.org/1999/xlink" viewBox="0 0 320.59 235.4"><defs><style>.cls-1{fill:url(#radial-gradient);}.cls-2{fill:url(#radial-gradient-2);}.cls-3{fill:url(#linear-gradient);}.cls-4{fill:url(#radial-gradient-3);}.cls-5{fill:url(#linear-gradient-2);}.cls-6{fill:#56c0aa;}.cls-7{fill:url(#linear-gradient-3);}</style><radialGradient id="radial-gradient" cx="162.54" cy="88.95" r="63.65" gradientUnits="userSpaceOnUse"><stop offset="0" stop-color="#56c0aa"/><stop offset="0.46" stop-color="#3a9cb0"/><stop offset="0.86" stop-color="#1f79b6"/><stop offset="0.94" stop-color="#1c75b7"/></radialGradient><radialGradient id="radial-gradient-2" cx="-2379.68" cy="-165.82" r="81.35" gradientTransform="translate(-2090.12 -71.3) rotate(179.94)" gradientUnits="userSpaceOnUse"><stop offset="0.17" stop-color="#1c75b7"/><stop offset="0.36" stop-color="#1f79b6"/><stop offset="0.55" stop-color="#2885b4"/><stop offset="0.74" stop-color="#3899b1"/><stop offset="0.94" stop-color="#4db5ac"/><stop offset="1" stop-color="#56c0aa"/></radialGradient><linearGradient id="linear-gradient" x1="-2367.33" y1="-173.39" x2="-2264.37" y2="-173.39" gradientTransform="translate(-2090.12 -71.3) rotate(179.94)" gradientUnits="userSpaceOnUse"><stop offset="0" stop-color="#56c0aa"/><stop offset="0.06" stop-color="#4db5ac"/><stop offset="0.26" stop-color="#3899b1"/><stop offset="0.45" stop-color="#2885b4"/><stop offset="0.64" stop-color="#1f79b6"/><stop offset="0.83" stop-color="#1c75b7"/></linearGradient><radialGradient id="radial-gradient-3" cx="83.4" cy="-1001.69" r="81.35" gradientTransform="matrix(1, 0, 0, 1, -47.72, 1086.41)" xlink:href="#radial-gradient-2"/><linearGradient id="linear-gradient-2" x1="95.75" y1="-1009.26" x2="198.7" y2="-1009.26" gradientTransform="matrix(1, 0, 0, 1, -47.72, 1086.41)" xlink:href="#linear-gradient"/><linearGradient id="linear-gradient-3" x1="160.29" y1="235.4" x2="160.29" y2="205.01" gradientUnits="userSpaceOnUse"><stop offset="0" stop-color="#1c75b7"/><stop offset="1" stop-color="#56c0aa"/></linearGradient></defs><g id="Layer_2" data-name="Layer 2"><g id="Layer_1-2" data-name="Layer 1"><path class="cls-1" d="M162.59,70.31c3.17,0,6.35,0,9.52,0a2.44,2.44,0,0,1,1.74.93Q178.77,79.6,183.5,88a2.19,2.19,0,0,1,0,1.84c-3.12,5.52-6.34,11-9.5,16.48a2.09,2.09,0,0,1-2,1.21c-6.44,0-12.89.07-19.33,0a2,2,0,0,1-1.37-.89q-5-8.44-9.82-17a1.88,1.88,0,0,1,0-1.59c3.2-5.65,6.43-11.28,9.74-16.86a2.37,2.37,0,0,1,1.74-.92C156.24,70.26,159.41,70.31,162.59,70.31Zm.09,9.57a9.08,9.08,0,1,0,9,9.24A9.19,9.19,0,0,0,162.68,79.88Zm-34-7.16c-7.93,1.43-15.78,3.14-23.2,6.42-3.26,1.44-6.43,3.09-8.85,5.83s-2.47,5.32,0,7.83a24.22,24.22,0,0,0,5.65,4.32c8.33,4.55,17.5,6.46,26.74,8.08a1.32,1.32,0,0,0,1-.66q3.45-7.42,6.8-14.89a1.88,1.88,0,0,0,0-1.36q-3.33-7.49-6.76-14.91a2.72,2.72,0,0,0-.66-.74C129,72.68,128.83,72.69,128.69,72.72ZM149.27,67a2.25,2.25,0,0,0,1.28-1c3-4.19,6-8.42,9-12.6.55-.75.67-1.23,0-2-5-5.9-10.18-11.57-16.37-16.25A28.62,28.62,0,0,0,133.9,30c-3.46-1-6-.14-7.21,2.62a15,15,0,0,0-1.24,4.92c-.66,10.89,2.88,20.93,6.43,31C137.82,68,143.55,67.52,149.27,67Zm49.38-33.79c-.91-2.71-2.67-3.8-5.45-3.31a21.08,21.08,0,0,0-6.68,2.33c-8.54,4.86-15,12.11-21.16,19.53a1.66,1.66,0,0,0,.16,1.48q4.57,6.53,9.26,13a2.19,2.19,0,0,0,1.39.81c5.28.55,10.58,1,15.86,1.55.92.1,1.32-.14,1.6-1,.76-2.31,1.65-4.58,2.36-6.91,2-6.54,3.75-13.12,4.19-20.1A58,58,0,0,0,198.65,33.16ZM126.11,143.7c1,3.76,3.68,5.39,7.34,4.14a34.57,34.57,0,0,0,8.22-4c7-4.77,12.63-11,18-17.45.59-.7.34-1.15-.11-1.77-2.92-4-5.85-8.05-8.66-12.15a3.52,3.52,0,0,0-3-1.69c-5-.4-9.91-.9-14.85-1.41-.81-.09-1.27,0-1.54.86-.57,1.77-1.25,3.49-1.82,5.25-2.3,7.12-4.26,14.3-4.63,21.89A57.86,57.86,0,0,0,126.11,143.7ZM228.37,84.94a46.5,46.5,0,0,0-7.56-5.15c-7.67-3.81-16-5.51-24.35-7.07-.91-.17-1.17.32-1.48,1-2.16,4.8-4.36,9.57-6.49,14.39a2.38,2.38,0,0,0,0,1.74c2.11,4.76,4.32,9.49,6.43,14.25a1.45,1.45,0,0,0,1.89,1A107.26,107.26,0,0,0,218,99.46c3.72-1.5,7.38-3.18,10.15-6.2a19.21,19.21,0,0,0,2.14-3.39C230.25,87.41,229.6,85.89,228.37,84.94ZM197.9,124.39c-1.17-4.77-2.85-9.41-4.38-14.09a1.52,1.52,0,0,0-1.17-.88q-8,.66-16,1.52a2.48,2.48,0,0,0-1.55.87c-3.1,4.25-6.12,8.57-9.21,12.83-.52.72-.61,1.22,0,1.88,4.63,4.75,9.08,9.67,13.89,14.22a29,29,0,0,0,12.11,7.14,6,6,0,0,0,7.55-4.55,20.34,20.34,0,0,0,.93-6.41A76.55,76.55,0,0,0,197.9,124.39ZM154.24,66.58H171L162.58,55ZM139.08,85.12l8.41-14.6L133.14,72ZM133.17,106l14.25,1.37-8.35-14.55ZM186.1,85.08c2-4.44,3.88-8.61,5.89-13.09l-14.27-1.44Zm-8.34,22.27,14.2-1.42-5.85-13.09Zm-6.88,4.05h-16.6l8.33,11.52Zm-8.33-28a5.44,5.44,0,0,0-5.49,5.46,5.54,5.54,0,1,0,5.49-5.46Z"/><path class="cls-2" d="M243.78,33.66a14.63,14.63,0,0,0-20.7,0h0a14.63,14.63,0,0,0,0,20.69l44.36,44.27a14.64,14.64,0,0,0,20.7,0h0a14.64,14.64,0,0,0,0-20.7L261.9,51.81Z"/><path class="cls-3" d="M223.2,143a14.62,14.62,0,0,0,20.69,0l44.27-44.36a14.34,14.34,0,0,0,.56-20.09l-.22-.24-.3-.29-.06-.07a.27.27,0,0,0-.08-.07L261.9,51.81c14.09,14.06-4.79,36.52-4.79,36.52h0l-33.94,34A14.64,14.64,0,0,0,223.2,143Z"/><path class="cls-4" d="M81.26,143a14.64,14.64,0,0,0,20.7,0h0a14.64,14.64,0,0,0,0-20.7L57.62,78a14.63,14.63,0,0,0-20.69,0h0a14.63,14.63,0,0,0,0,20.69l26.23,26.14Z"/><path class="cls-5" d="M101.92,33.65a14.64,14.64,0,0,0-20.69,0L36.93,78a14.33,14.33,0,0,0-.58,20.09l.23.24.29.3.06.07.08.06,26.15,26.1C49.08,110.78,68,88.34,68,88.34h0l34-34A14.64,14.64,0,0,0,101.92,33.65Z"/><circle class="cls-6" cx="162.54" cy="14.1" r="14.1"/><circle class="cls-6" cx="162.54" cy="163.57" r="14.1"/><path class="cls-7" d="M0,205H5.71v18.21l5.7-7.54h6.9l-6.41,8.51L18.84,235H12.39L5.71,224.77V235H0Zm22.62,0h5.84v12.92a12.33,12.33,0,0,1,2.92-2,7.46,7.46,0,0,1,3.12-.61,5.71,5.71,0,0,1,4.75,2.19A9.57,9.57,0,0,1,41,223.63V235h-5.8V224.65a5.05,5.05,0,0,0-1-3.14,2.87,2.87,0,0,0-2.35-1.27,2.76,2.76,0,0,0-2.59,1.46,9.67,9.67,0,0,0-.82,4.56V235H22.62Zm36.79,30v-3.3h-.09a9.93,9.93,0,0,1-2.72,2.79,6.19,6.19,0,0,1-3.39.87,7.19,7.19,0,0,1-5.77-2.92,10.86,10.86,0,0,1-2.38-7.1,10.49,10.49,0,0,1,2.53-7.08,7.72,7.72,0,0,1,6-3,6.05,6.05,0,0,1,3,.74,12,12,0,0,1,2.81,2.36v-2.67h5.75V235Zm-4.22-13.95a3.59,3.59,0,0,0-2.86,1.36,5.16,5.16,0,0,0-1.14,3.43A4.4,4.4,0,0,0,52.28,229a3.72,3.72,0,0,0,2.86,1.18,3.8,3.8,0,0,0,2.92-1.36,4.78,4.78,0,0,0,1.21-3.29,4.41,4.41,0,0,0-1.21-3.11A3.78,3.78,0,0,0,55.19,221.05Zm21.87-5.37V218a9,9,0,0,1,6.18-2.76,5.61,5.61,0,0,1,4.57,2.27,9,9,0,0,1,1.81,5.8V235H83.78V224.2a4.35,4.35,0,0,0-.91-2.81,2.75,2.75,0,0,0-2.21-1.15,3.07,3.07,0,0,0-2.59,1.45,6.43,6.43,0,0,0-1,3.74V235H71.31V215.68Zm20.61-10.17h7.55l5.52,17.68,5.53-17.68h7.29L127.35,235h-6l-2.61-20.75L112.2,235h-2.88l-6.66-20.93L100.2,235H94Zm33.52,19.88a9.74,9.74,0,0,1,10.18-10.13,9.36,9.36,0,0,1,7,2.88,10.59,10.59,0,0,1,0,14.39,9.46,9.46,0,0,1-7.06,2.87,9.31,9.31,0,0,1-7.43-3A10.3,10.3,0,0,1,131.19,225.39Zm14.31,0a5,5,0,0,0-1.28-3.42,3.88,3.88,0,0,0-3-1.46,4,4,0,0,0-3,1.37,4.67,4.67,0,0,0-1.28,3.28,5.21,5.21,0,0,0,1.27,3.55,3.94,3.94,0,0,0,3.06,1.46,3.88,3.88,0,0,0,3-1.43A4.83,4.83,0,0,0,145.5,225.39ZM156.57,205h5.84v12.92a12.54,12.54,0,0,1,2.92-2,7.47,7.47,0,0,1,3.13-.61,5.71,5.71,0,0,1,4.75,2.19,9.63,9.63,0,0,1,1.72,6.07V235h-5.8V224.65a5.12,5.12,0,0,0-.95-3.14,2.87,2.87,0,0,0-2.35-1.27,2.78,2.78,0,0,0-2.6,1.46,9.8,9.8,0,0,0-.82,4.56V235h-5.84Zm36.8,30v-3.3h-.09a9.93,9.93,0,0,1-2.72,2.79,6.19,6.19,0,0,1-3.39.87,7.19,7.19,0,0,1-5.77-2.92,10.86,10.86,0,0,1-2.39-7.1,10.5,10.5,0,0,1,2.54-7.08,7.71,7.71,0,0,1,6-3,6.05,6.05,0,0,1,3,.74,12,12,0,0,1,2.81,2.36v-2.67h5.75V235Zm-4.23-13.95a3.59,3.59,0,0,0-2.85,1.36,5.16,5.16,0,0,0-1.14,3.43,4.4,4.4,0,0,0,1.09,3.11,3.72,3.72,0,0,0,2.86,1.18,3.8,3.8,0,0,0,2.92-1.36,4.78,4.78,0,0,0,1.21-3.29,4.41,4.41,0,0,0-1.21-3.11A3.79,3.79,0,0,0,189.14,221.05Zm21.75-5.37v3.08a10.9,10.9,0,0,0,1.19-1,12.86,12.86,0,0,1,1.51-1.29,6.08,6.08,0,0,1,1.75-.86,6.37,6.37,0,0,1,1.86-.32,5.65,5.65,0,0,1,2.87.93,6.88,6.88,0,0,1,2.58,3.31,12.59,12.59,0,0,1,3.52-3.27,6.55,6.55,0,0,1,3.2-1,5.63,5.63,0,0,1,4.45,2.16,8.06,8.06,0,0,1,1.82,5.34V235h-5.75V224.29a4.13,4.13,0,0,0-.88-2.69,2.64,2.64,0,0,0-2.11-1.09,3.28,3.28,0,0,0-2.56,1.24,4.31,4.31,0,0,0-1.08,2.94V235h-5.7V224.56a4.57,4.57,0,0,0-.89-2.85,2.63,2.63,0,0,0-2.15-1.15,3.26,3.26,0,0,0-2.56,1.27,4.52,4.52,0,0,0-1.07,3V235h-5.8V215.68Zm36.43,0v3.08a10,10,0,0,0,1.19-1,13.73,13.73,0,0,1,1.51-1.29,6.08,6.08,0,0,1,1.75-.86,6.43,6.43,0,0,1,1.86-.32,5.65,5.65,0,0,1,2.87.93,6.89,6.89,0,0,1,2.59,3.31,12.57,12.57,0,0,1,3.51-3.27,6.55,6.55,0,0,1,3.2-1,5.61,5.61,0,0,1,4.45,2.16,8.06,8.06,0,0,1,1.82,5.34V235h-5.75V224.29a4.13,4.13,0,0,0-.88-2.69,2.64,2.64,0,0,0-2.11-1.09,3.28,3.28,0,0,0-2.56,1.24,4.31,4.31,0,0,0-1.08,2.94V235H254V224.56a4.57,4.57,0,0,0-.89-2.85,2.63,2.63,0,0,0-2.14-1.15,3.24,3.24,0,0,0-2.56,1.27,4.53,4.53,0,0,0-1.08,3V235h-5.8V215.68ZM290.51,235v-3.3h-.09a9.93,9.93,0,0,1-2.72,2.79,6.19,6.19,0,0,1-3.39.87,7.19,7.19,0,0,1-5.77-2.92,10.86,10.86,0,0,1-2.38-7.1,10.49,10.49,0,0,1,2.53-7.08,7.72,7.72,0,0,1,6-3,6.05,6.05,0,0,1,3,.74,11.79,11.79,0,0,1,2.81,2.36v-2.67h5.75V235Zm-4.22-13.95a3.59,3.59,0,0,0-2.86,1.36,5.16,5.16,0,0,0-1.14,3.43,4.4,4.4,0,0,0,1.09,3.11,3.72,3.72,0,0,0,2.86,1.18,3.8,3.8,0,0,0,2.92-1.36,4.78,4.78,0,0,0,1.21-3.29,4.41,4.41,0,0,0-1.21-3.11A3.77,3.77,0,0,0,286.29,221.05Zm28.5-16h5.8v30h-5.66v-3.3h-.09a7.42,7.42,0,0,1-6.24,3.61,7.05,7.05,0,0,1-5.66-2.89,11.8,11.8,0,0,1,.08-14.21,7.28,7.28,0,0,1,5.81-3,6.88,6.88,0,0,1,3.25.7,10.15,10.15,0,0,1,2.71,2.31Zm-4.23,16a3.66,3.66,0,0,0-2.65,1.3,4.94,4.94,0,0,0-1.23,3.53,4.46,4.46,0,0,0,1.09,3,3.35,3.35,0,0,0,2.63,1.26,4,4,0,0,0,3.07-1.36,4.83,4.83,0,0,0,1.23-3.38,4.38,4.38,0,0,0-1.2-3.06A3.82,3.82,0,0,0,310.56,221Z"/></g></g></svg>