<svg xmlns="http://www.w3.org/2000/svg" xmlns:xlink="http://www.w3.org/1999/xlink" viewBox="0 0 260.04 177.66"><defs><style>.cls-1{fill:url(#radial-gradient);}.cls-2{fill:url(#radial-gradient-2);}.cls-3{fill:url(#linear-gradient);}.cls-4{fill:url(#radial-gradient-3);}.cls-5{fill:url(#linear-gradient-2);}.cls-6{fill:#56c0aa;}</style><radialGradient id="radial-gradient" cx="130.02" cy="88.95" r="63.65" gradientUnits="userSpaceOnUse"><stop offset="0" stop-color="#56c0aa"/><stop offset="0.46" stop-color="#3a9cb0"/><stop offset="0.86" stop-color="#1f79b6"/><stop offset="0.94" stop-color="#1c75b7"/></radialGradient><radialGradient id="radial-gradient-2" cx="-3344.16" cy="-230.81" r="81.35" gradientTransform="translate(-3087.19 -135.25) rotate(179.94)" gradientUnits="userSpaceOnUse"><stop offset="0.17" stop-color="#1c75b7"/><stop offset="0.36" stop-color="#1f79b6"/><stop offset="0.55" stop-color="#2885b4"/><stop offset="0.74" stop-color="#3899b1"/><stop offset="0.94" stop-color="#4db5ac"/><stop offset="1" stop-color="#56c0aa"/></radialGradient><linearGradient id="linear-gradient" x1="-3331.81" y1="-238.38" x2="-3228.85" y2="-238.38" gradientTransform="translate(-3087.19 -135.25) rotate(179.94)" gradientUnits="userSpaceOnUse"><stop offset="0" stop-color="#56c0aa"/><stop offset="0.06" stop-color="#4db5ac"/><stop offset="0.26" stop-color="#3899b1"/><stop offset="0.45" stop-color="#2885b4"/><stop offset="0.64" stop-color="#1f79b6"/><stop offset="0.83" stop-color="#1c75b7"/></linearGradient><radialGradient id="radial-gradient-3" cx="50.87" cy="-1001.53" r="81.35" gradientTransform="matrix(1, 0, 0, 1, -47.71, 1086.25)" xlink:href="#radial-gradient-2"/><linearGradient id="linear-gradient-2" x1="63.22" y1="-1009.11" x2="166.17" y2="-1009.11" gradientTransform="matrix(1, 0, 0, 1, -47.71, 1086.25)" xlink:href="#linear-gradient"/></defs><g id="Layer_2" data-name="Layer 2"><g id="Layer_1-2" data-name="Layer 1"><path class="cls-1" d="M130.07,70.31c3.17,0,6.35,0,9.52,0a2.44,2.44,0,0,1,1.74.93Q146.23,79.6,151,88a2.19,2.19,0,0,1,0,1.84c-3.12,5.52-6.34,11-9.5,16.48a2.09,2.09,0,0,1-2,1.21c-6.44,0-12.89.07-19.33,0a2,2,0,0,1-1.37-.89q-5-8.44-9.82-17a1.88,1.88,0,0,1,0-1.59c3.2-5.65,6.43-11.28,9.74-16.86a2.37,2.37,0,0,1,1.74-.92C123.72,70.26,126.89,70.31,130.07,70.31Zm.09,9.57a9.08,9.08,0,1,0,9,9.24A9.19,9.19,0,0,0,130.16,79.88Zm-34-7.16c-7.93,1.43-15.78,3.14-23.2,6.42-3.26,1.44-6.43,3.09-8.85,5.83s-2.47,5.32,0,7.83a24.22,24.22,0,0,0,5.65,4.32c8.33,4.55,17.5,6.46,26.74,8.08a1.32,1.32,0,0,0,1-.66q3.45-7.42,6.8-14.89a1.88,1.88,0,0,0,0-1.36Q101,80.8,97.53,73.38a2.72,2.72,0,0,0-.66-.74C96.46,72.68,96.31,72.69,96.17,72.72ZM116.75,67A2.25,2.25,0,0,0,118,66c3-4.19,6-8.42,9-12.6.55-.75.66-1.23,0-2-5-5.9-10.19-11.57-16.37-16.25A28.62,28.62,0,0,0,101.38,30c-3.46-1-6-.14-7.21,2.62a15,15,0,0,0-1.24,4.92c-.66,10.89,2.88,20.93,6.43,31C105.3,68,111,67.52,116.75,67Zm49.38-33.79c-.91-2.71-2.67-3.8-5.45-3.31A21.08,21.08,0,0,0,154,32.18c-8.54,4.86-14.95,12.11-21.16,19.53a1.66,1.66,0,0,0,.16,1.48q4.58,6.53,9.26,13a2.19,2.19,0,0,0,1.39.81c5.28.55,10.58,1,15.86,1.55.92.1,1.32-.14,1.6-1,.76-2.31,1.65-4.58,2.36-6.91,2-6.54,3.75-13.12,4.19-20.1A58,58,0,0,0,166.13,33.16ZM93.59,143.7c1,3.76,3.68,5.39,7.34,4.14a34.76,34.76,0,0,0,8.22-4c7-4.77,12.62-11,18-17.45.59-.7.34-1.15-.11-1.77-2.92-4-5.85-8.05-8.66-12.15a3.52,3.52,0,0,0-3-1.69c-5-.4-9.91-.9-14.85-1.41-.81-.09-1.27,0-1.54.86-.57,1.77-1.25,3.49-1.82,5.25-2.3,7.12-4.26,14.3-4.63,21.89A57.86,57.86,0,0,0,93.59,143.7ZM195.85,84.94a46.5,46.5,0,0,0-7.56-5.15c-7.67-3.81-16-5.51-24.35-7.07-.91-.17-1.17.32-1.48,1-2.16,4.8-4.36,9.57-6.49,14.39a2.38,2.38,0,0,0,0,1.74c2.11,4.76,4.32,9.49,6.43,14.25a1.45,1.45,0,0,0,1.89,1,107.26,107.26,0,0,0,21.14-5.65c3.72-1.5,7.38-3.18,10.14-6.2a18.77,18.77,0,0,0,2.15-3.39C197.73,87.41,197.08,85.89,195.85,84.94Zm-30.47,39.45c-1.17-4.77-2.85-9.41-4.38-14.09a1.53,1.53,0,0,0-1.17-.88q-8,.66-16,1.52a2.48,2.48,0,0,0-1.55.87c-3.1,4.25-6.12,8.57-9.21,12.83-.52.72-.61,1.22,0,1.88,4.63,4.75,9.08,9.67,13.89,14.22a29,29,0,0,0,12.11,7.14,6,6,0,0,0,7.55-4.55,20.34,20.34,0,0,0,.93-6.41A76.55,76.55,0,0,0,165.38,124.39ZM121.72,66.58h16.72L130.06,55ZM106.56,85.12,115,70.52,100.62,72ZM100.65,106l14.25,1.37-8.35-14.55Zm52.93-20.89L159.47,72,145.2,70.55Zm-8.34,22.27,14.2-1.42-5.85-13.09Zm-6.88,4.05h-16.6l8.33,11.52C133,118.92,135.58,115.26,138.36,111.4Zm-8.33-28a5.44,5.44,0,0,0-5.49,5.46A5.53,5.53,0,1,0,130,83.43Z"/><path class="cls-2" d="M211.26,33.66a14.63,14.63,0,0,0-20.7,0h0a14.63,14.63,0,0,0,0,20.69l44.36,44.27a14.64,14.64,0,0,0,20.7,0h0a14.64,14.64,0,0,0,0-20.7L229.38,51.81Z"/><path class="cls-3" d="M190.68,143a14.62,14.62,0,0,0,20.69,0l44.27-44.36a14.34,14.34,0,0,0,.56-20.09l-.22-.24-.3-.29-.06-.07-.08-.07L229.38,51.81c14.09,14.06-4.79,36.52-4.79,36.52h0l-33.94,34A14.64,14.64,0,0,0,190.68,143Z"/><path class="cls-4" d="M48.74,143a14.64,14.64,0,0,0,20.7,0h0a14.64,14.64,0,0,0,0-20.7L25.1,78A14.63,14.63,0,0,0,4.41,78h0a14.63,14.63,0,0,0,0,20.69l26.23,26.14Z"/><path class="cls-5" d="M69.4,33.65a14.64,14.64,0,0,0-20.69,0L4.41,78a14.33,14.33,0,0,0-.58,20.09l.22.24.3.3.06.07.08.06,26.15,26.1c-14.08-14.07,4.81-36.51,4.81-36.51h0l34-34A14.64,14.64,0,0,0,69.4,33.65Z"/><circle class="cls-6" cx="130.02" cy="14.1" r="14.1"/><circle class="cls-6" cx="130.02" cy="163.57" r="14.1"/></g></g></svg>